<?xml version="1.0" encoding="UTF-8"?><svg id="Layer_1" xmlns="http://www.w3.org/2000/svg" viewBox="0 0 283.46 283.46"><defs><style>.cls-1{fill:#fff;}.cls-2{fill:#003369;}</style></defs><rect class="cls-2" width="283.46" height="283.46"/><g><g><path class="cls-1" d="M205.57,43.21c8.31,6.96-1.91,28.37-11.54,41.93-17.26,24.32-31.49,32.98-40.98,31.78,1.03-1.21,2.03-2.53,2.98-3.98,8.86-13.6,12.18-27.8,9.66-45.53h0v-.02c9.57-9.24,32.91-30.01,39.86-24.18Z"/><path class="cls-1" d="M165.71,67.39h0v.02c-2.03,1.95-3.44,3.4-3.94,3.95-23.12,25.82-19.36,39.12-15.09,42.77,1.79,1.52,3.92,2.49,6.37,2.79-3.21,3.77-6.73,6.35-10.14,8.05-3.21-6.01-8.56-13.21-17.08-21.67-1.14-1.13-6.56-5.97-13.42-11.31,1.16-27.05,14.6-67.06,25.76-67.62,10.66-.54,24.19,22.62,27.53,43.02Z"/><path class="cls-1" d="M142.92,124.97c6.51,12.17,4.17,19.42,1.33,22.15-8.65,8.3-26.71,3.27-51.33-27.42-10.9-13.6-22.9-35.37-14.64-43.16,5.35-5.05,22,5.99,34.13,15.45-.02,.52-.04,1.03-.05,1.54-.84,15.21,1.9,31.23,16.39,34.09,3.07,.6,8.28,.2,13.83-2.47l.34-.18Z"/></g><g><g><polygon class="cls-1" points="80.23 159.45 75.09 159.45 68.5 189 59.89 159.69 59.82 159.45 54.67 159.45 46.38 188.92 39.83 159.71 39.77 159.45 34.36 159.45 43.11 197.74 43.16 198 48.95 198 57.2 168.21 65.63 197.75 65.7 198 71.33 198 80.18 159.68 80.23 159.45"/><path class="cls-1" d="M215.69,183.59c0,3.05-.6,5.58-1.74,7.32-.62,.97-1.4,1.69-2.37,2.21-1.05,.56-2.33,.84-3.79,.84-1.22,0-2.23-.3-3.11-.91-.58-.4-1.09-.94-1.55-1.66-.61-.95-1.06-2.17-1.36-3.63-.25-1.21-.39-2.6-.39-4.02,0-2.56,.55-4.86,1.55-6.46,.57-.9,1.27-1.59,2.09-2.06,.92-.53,1.97-.79,3.23-.79s2.45,.25,3.43,.74c1.32,.67,2.33,1.79,3.03,3.32,.64,1.42,.97,3.18,.97,5.09m5.18,7.63v-31.94h-5.07v13.44c-.74-.67-1.58-1.25-2.53-1.73-1.71-.85-3.62-1.3-5.53-1.3-2.01,0-3.83,.43-5.41,1.29-2.12,1.15-3.75,3.03-4.85,5.58-.93,2.17-1.42,4.78-1.42,7.53,0,3.72,.93,7.18,2.6,9.74,.98,1.5,2.21,2.68,3.65,3.5,1.59,.9,3.41,1.36,5.42,1.36s3.81-.45,5.49-1.34c.95-.5,1.85-1.15,2.66-1.95l.11,2.52h5.2l-.13-2.09c-.09-1.43-.19-3.06-.19-4.63"/><path class="cls-1" d="M95.12,193.03c-1.03,.58-2.22,.88-3.53,.88s-2.5-.3-3.53-.88c-1.35-.77-2.47-2.08-3.22-3.79-.67-1.53-1.04-3.34-1.04-5.09,0-2.44,.68-4.85,1.87-6.61,.66-.98,1.47-1.75,2.39-2.28,1.02-.58,2.21-.88,3.53-.88s2.51,.3,3.53,.88c1.36,.77,2.48,2.09,3.23,3.79,.67,1.51,1.04,3.32,1.04,5.09,0,2.44-.68,4.85-1.87,6.6-.67,.99-1.47,1.75-2.4,2.28m2.31-22.1c-1.72-.85-3.69-1.28-5.84-1.28s-4.12,.43-5.84,1.27c-2.35,1.14-4.26,3.06-5.53,5.56-1.15,2.25-1.76,4.9-1.76,7.67,0,3.77,1.12,7.27,3.16,9.86,1.13,1.44,2.52,2.57,4.13,3.35,1.73,.84,3.69,1.27,5.84,1.27s4.11-.43,5.84-1.27c2.35-1.14,4.26-3.06,5.54-5.55,1.15-2.25,1.76-4.91,1.76-7.67,0-3.77-1.12-7.27-3.17-9.87-1.13-1.45-2.52-2.58-4.13-3.35"/><path class="cls-1" d="M127.93,184.3c0,2.41-.7,4.87-1.87,6.6-.67,.99-1.47,1.75-2.39,2.28-1.04,.59-2.23,.89-3.54,.89s-2.5-.3-3.53-.89c-1.36-.77-2.47-2.08-3.22-3.79-.67-1.53-1.04-3.34-1.04-5.09,0-2.39,.7-4.86,1.87-6.6,.67-1,1.48-1.76,2.4-2.28,1.02-.59,2.21-.88,3.53-.88s2.51,.3,3.53,.88c1.36,.77,2.47,2.09,3.22,3.8,.67,1.51,1.04,3.32,1.04,5.08m-1.96-13.22c-1.74-.85-3.7-1.28-5.83-1.28s-4.1,.43-5.84,1.28c-2.35,1.14-4.26,3.06-5.53,5.56-1.15,2.25-1.76,4.9-1.76,7.66,0,3.77,1.12,7.28,3.16,9.87,1.13,1.44,2.52,2.57,4.13,3.35,1.73,.84,3.69,1.27,5.84,1.27s4.1-.43,5.83-1.27c2.35-1.14,4.27-3.07,5.54-5.56,1.15-2.25,1.76-4.9,1.76-7.66,0-3.77-1.13-7.28-3.16-9.87-1.14-1.45-2.53-2.58-4.13-3.35"/><path class="cls-1" d="M155.19,183.69c0,3.04-.6,5.58-1.74,7.32-.63,.97-1.41,1.69-2.37,2.21-1.05,.56-2.32,.84-3.79,.84-1.22,0-2.23-.3-3.1-.91-.59-.41-1.11-.96-1.55-1.66-.6-.96-1.07-2.21-1.36-3.63-.25-1.23-.39-2.62-.39-4.02,0-2.56,.55-4.85,1.56-6.46,.57-.9,1.26-1.6,2.08-2.06,.92-.53,1.98-.79,3.23-.79s2.45,.25,3.43,.74c1.31,.67,2.33,1.79,3.03,3.32,.64,1.42,.98,3.18,.98,5.09m5.18,7.63v-31.94h-5.07v13.44c-.73-.67-1.58-1.25-2.53-1.73-1.7-.85-3.61-1.3-5.53-1.3s-3.83,.43-5.41,1.29c-2.13,1.16-3.76,3.04-4.84,5.57-.93,2.18-1.42,4.78-1.42,7.54,0,3.72,.93,7.17,2.6,9.74,.98,1.5,2.21,2.68,3.65,3.5,1.6,.9,3.42,1.36,5.43,1.36s3.82-.45,5.49-1.34c.95-.5,1.84-1.15,2.66-1.95l.1,2.53h5.2l-.11-1.79c-.1-1.53-.21-3.26-.21-4.92"/><path class="cls-1" d="M180.57,182.62c-2.16-.74-4.09-1.22-5.82-1.66-1.11-.28-2.08-.52-2.9-.78-1.02-.32-1.73-.66-2.14-1.05-.19-.17-.33-.37-.43-.6-.11-.24-.15-.51-.15-.86,0-.54,.12-1,.37-1.41,.34-.55,.92-.99,1.74-1.29,.78-.29,1.75-.45,2.81-.45,1.57,0,2.87,.28,3.79,.8,.49,.28,.85,.61,1.12,1.01,.3,.45,.47,.97,.53,1.58l.08,.88h5.33l-.08-1.04c-.11-1.45-.48-2.73-1.09-3.78-.86-1.5-2.19-2.61-3.96-3.3-1.5-.59-3.33-.88-5.43-.88-1.92,0-4.7,.3-7.01,1.72-1.09,.67-1.95,1.52-2.54,2.53-.66,1.1-.99,2.39-.99,3.83,0,1.28,.28,2.42,.84,3.41,.4,.68,.92,1.28,1.56,1.78,.81,.65,1.83,1.18,3.12,1.64,1.12,.4,2.29,.69,3.51,.98l.76,.16c1.8,.39,3.5,.75,4.72,1.33,.67,.31,1.18,.68,1.5,1.1,.34,.45,.5,.98,.51,1.65,0,.69-.15,1.28-.47,1.81-.42,.73-1.14,1.31-2.12,1.71-.92,.38-2.08,.59-3.26,.59-1.79,0-3.28-.31-4.32-.9-.57-.33-1-.72-1.3-1.21-.35-.53-.54-1.16-.59-1.92l-.06-.9h-5.28v.99c.03,1.51,.4,2.87,1.07,4.05,.92,1.58,2.36,2.78,4.28,3.59,1.61,.68,3.49,1.04,5.45,1.04,3.1,0,5.97-.78,8.08-2.18,1.19-.78,2.13-1.77,2.79-2.92,.71-1.24,1.07-2.65,1.07-4.21s-.48-3.01-1.39-4.23c-.89-1.2-2.17-2.11-3.69-2.63"/><rect class="cls-1" x="188" y="159.46" width="5.59" height="5.75"/><rect class="cls-1" x="188.26" y="170.65" width="5.07" height="27.47"/><path class="cls-1" d="M231.88,176.68c.61-.72,1.34-1.29,2.15-1.67,.87-.41,1.86-.62,2.94-.62,1.18,0,2.25,.19,3.17,.58,1.27,.53,2.29,1.44,3.04,2.68,.56,.95,.95,2.11,1.15,3.45h-14.44c.32-1.73,1.01-3.29,1.98-4.42m12.37,11.97c-.34,1.47-1.16,2.8-2.32,3.75-1.2,.99-2.67,1.51-4.23,1.51-1.4,0-2.63-.24-3.68-.71-1.42-.64-2.51-1.73-3.26-3.21-.58-1.14-.94-2.54-1.06-4.16h20.09v-.97c0-4.5-.96-8.09-2.86-10.67-1.06-1.45-2.42-2.57-4.05-3.33-1.7-.79-3.71-1.2-5.96-1.2-2.01,0-3.87,.42-5.53,1.25-2.26,1.14-4.11,3.04-5.34,5.5-1.14,2.27-1.74,4.95-1.74,7.75,0,3.85,1.06,7.38,2.99,9.95,1.07,1.43,2.38,2.54,3.9,3.3,1.64,.82,3.49,1.23,5.52,1.23,3.37,0,6.14-.79,8.23-2.36,2.14-1.59,3.65-4.03,4.51-7.27l.09-.37h-5.3Z"/></g><g><polygon class="cls-1" points="68.32 232.5 86.3 232.5 86.3 227.5 68.32 227.5 68.32 215.95 87.21 215.95 87.21 210.94 62.51 210.94 62.51 250 87.63 250 87.63 245 68.32 245 68.32 232.5"/><path class="cls-1" d="M112.25,223.84c-1.83-1.23-3.97-1.85-6.37-1.85-3.84,0-6.66,1.5-8.4,4.47l-.2-3.76h-5.5v.23c.06,1.23,.09,2.36,.09,3.35v23.73h5.66v-16.33c0-2.2,.7-4.03,2.09-5.43,1.26-1.28,2.87-1.93,4.78-1.93s3.38,.62,4.6,1.85c.9,.86,1.35,2.28,1.35,4.22v17.61h5.66v-18.64c0-3.37-1.26-5.9-3.74-7.53Z"/><path class="cls-1" d="M161.79,221.99c-4.18,0-6.95,1.51-8.26,4.49l-.08-3.78h-5.51v.23c.06,1.24,.09,2.36,.09,3.35v23.73h5.66v-14.83c0-5.38,2.39-7.99,7.31-7.99,.88,0,1.6,.03,2.13,.1l.25,.03-.03-5.32h-1.56Z"/><path class="cls-1" d="M184.72,225.75c-1.92-2.5-4.67-3.76-8.2-3.76s-6.6,1.23-8.87,3.66c-2.27,2.43-3.42,5.95-3.42,10.46,0,3.97,.96,7.23,2.85,9.71,1.92,2.49,4.96,3.76,9.02,3.76s6.75-1.32,8.28-3.92c-.05,3.92-.42,6.6-1.1,7.98-.94,1.9-2.9,2.87-5.84,2.87-3.9,0-5.86-1.62-6-4.96v-.21h-5.82v.22c.06,3.26,1.02,5.61,2.87,6.99,1.83,1.35,4.82,2.04,8.87,2.04,4.57,0,7.88-1.01,9.83-3,1.13-1.07,1.89-2.43,2.27-4.02,.39-1.59,.58-4.3,.58-8.05v-18.23c.02-.58,.03-1.38,.03-2.39s.02-1.68,.05-1.97l.03-.24h-5.34l-.09,3.06Zm-2.5,2.49c1.44,1.44,2.17,3.8,2.17,7.01,0,3.4-.63,6-1.87,7.72-1.21,1.68-3.12,2.53-5.67,2.53-2.19,0-3.91-.82-5.12-2.43-1.21-1.65-1.82-4.05-1.82-7.14,0-6.63,2.27-9.86,6.94-9.86,2.13,0,3.94,.73,5.38,2.17Z"/><polygon class="cls-1" points="215.56 222.7 207.44 243.09 199.01 222.83 198.95 222.7 192.86 222.7 204.19 249.58 200.03 260.03 205.73 260.03 209.9 249.24 221.52 223.01 221.66 222.7 215.56 222.7"/><path class="cls-1" d="M126.66,228.89c.61-.72,1.34-1.29,2.15-1.67,.87-.41,1.86-.62,2.94-.62,1.18,0,2.25,.19,3.17,.58,1.27,.53,2.29,1.44,3.04,2.68,.56,.95,.95,2.11,1.15,3.45h-14.44c.32-1.73,1.01-3.29,1.98-4.42m12.37,11.97c-.34,1.47-1.16,2.8-2.32,3.75-1.2,.99-2.67,1.51-4.23,1.51-1.4,0-2.63-.24-3.68-.71-1.42-.64-2.51-1.73-3.26-3.21-.58-1.14-.94-2.54-1.06-4.16h20.09v-.97c0-4.5-.96-8.09-2.86-10.67-1.06-1.45-2.42-2.57-4.05-3.33-1.7-.79-3.71-1.2-5.96-1.2-2.01,0-3.87,.42-5.53,1.25-2.26,1.14-4.11,3.04-5.34,5.5-1.14,2.27-1.74,4.95-1.74,7.75,0,3.85,1.06,7.38,2.99,9.95,1.07,1.43,2.38,2.54,3.9,3.3,1.64,.82,3.49,1.23,5.52,1.23,3.37,0,6.14-.79,8.23-2.36,2.14-1.59,3.65-4.03,4.51-7.27l.09-.37h-5.3Z"/></g></g></g></svg>